<?xml version="1.0" encoding="UTF-8" standalone="no"?>
<!-- Created with Inkscape (http://www.inkscape.org/) -->

<svg
   version="1.1"
   id="svg1"
   width="1024"
   height="1024"
   viewBox="0 0 1024 1024"
   sodipodi:docname="ChatGPT Image Aug 2, 2026, 08_04_46 PM smooth.svg"
   inkscape:version="1.4.4 (dcaf3e7, 2026-05-05)"
   xmlns:inkscape="http://www.inkscape.org/namespaces/inkscape"
   xmlns:sodipodi="http://sodipodi.sourceforge.net/DTD/sodipodi-0.dtd"
   xmlns="http://www.w3.org/2000/svg"
   xmlns:svg="http://www.w3.org/2000/svg">
  <defs
     id="defs1" />
  <sodipodi:namedview
     id="namedview1"
     pagecolor="#ffffff"
     bordercolor="#000000"
     borderopacity="0.25"
     inkscape:showpageshadow="2"
     inkscape:pageopacity="0.0"
     inkscape:pagecheckerboard="0"
     inkscape:deskcolor="#d1d1d1"
     inkscape:zoom="0.78808594"
     inkscape:cx="511.36555"
     inkscape:cy="512"
     inkscape:window-width="1920"
     inkscape:window-height="1009"
     inkscape:window-x="-8"
     inkscape:window-y="-8"
     inkscape:window-maximized="1"
     inkscape:current-layer="g1" />
  <g
     inkscape:groupmode="layer"
     inkscape:label="Image"
     id="g1">
    <path
       style="fill:#000000"
       d="m 611.34905,654.95667 c -2.0625,-1.10245 -3.75,-2.41112 -3.75,-2.90816 0,-0.49703 -2.8125,-2.5836 -6.25,-4.63681 -14.70309,-8.7821 -18.43916,-12.03487 -21.90186,-19.06861 -3.02163,-6.13781 -3.68658,-6.81758 -8.80825,-9.00466 -3.04694,-1.30112 -6.3877,-2.85102 -7.42391,-3.44422 -2.2174,-1.2694 -3.09325,-0.28185 -4.61329,5.20167 -1.51964,5.48211 -6.21006,11.24294 -10.86176,13.34057 -3.76935,1.69974 -4.85819,1.76148 -11.40408,0.64669 -3.98027,-0.67786 -11.28685,-2.29873 -16.23685,-3.60195 -10.44377,-2.74959 -22.86519,-4.91934 -37,-6.4631 -5.5,-0.60069 -14.05,-1.96424 -19,-3.03011 -14.38399,-3.09726 -25.50643,-4.78353 -49.19981,-7.4592 -28.56934,-3.2263 -45.21496,-5.91623 -49.12611,-7.93876 -3.85767,-1.99488 -5.34799,-4.52787 -4.0396,-6.86584 1.28193,-2.29068 3.58215,-2.19236 4.33681,0.18536 0.40537,1.27721 2.16616,2.26871 5.31739,2.99421 7.66227,1.76407 35.48441,5.63244 62.21132,8.64983 7.425,0.83826 20.025,2.82133 28,4.40683 7.975,1.58549 19,3.40171 24.5,4.03603 15.33756,1.7689 27.15821,3.9063 36.5,6.59989 4.675,1.34798 11.65,2.71573 15.5,3.03944 6.17097,0.51886 7.31993,0.33435 9.70132,-1.55789 3.38937,-2.69317 10.0262,-14.96212 9.41032,-17.39606 -0.67825,-2.68046 1.30897,-7.56896 3.56841,-8.77818 2.40785,-1.28864 8.43544,-0.43171 15.79639,2.24574 3.01204,1.0956 5.60132,1.62268 5.75397,1.17131 1.16594,-3.44784 4.7029,-7.23639 8.85315,-9.48291 4.24327,-2.29688 33.22997,-10.97891 51.91644,-15.54991 6.71208,-1.64187 12.87855,-1.17503 17.76723,1.34509 1.77803,0.91657 7.73277,5.99982 13.23277,11.29611 11.21062,10.79541 18.95628,17.35403 25.25,21.3804 4.76912,3.05101 5.30786,4.37698 2,4.92246 -4.70881,0.77649 -11.72118,-4.16608 -28.12001,-19.82002 -6.12149,-5.84344 -12.79956,-11.47661 -14.84015,-12.51817 -6.6105,-3.37413 -11.29078,-2.5676 -51.28984,8.83845 -10.35153,2.95182 -13.66212,4.34501 -16.25,6.83845 -1.7875,1.72227 -3.25,3.43458 -3.25,3.80513 0,1.09567 4.91048,2.70805 14.5,4.76115 12.81229,2.74308 17.75695,2.97548 25.60405,1.20338 10.70672,-2.41788 17.44526,-0.0565 20.46535,7.17156 1.21236,2.90159 2.08765,3.37831 10.12882,5.51661 9.2275,2.45376 15.85403,5.98543 16.79533,8.95121 0.8897,2.8032 -1.22885,6.96918 -4.09901,8.06042 -3.13488,1.19187 -6.15529,0.74161 -21.39454,-3.18937 -23.17313,-5.97752 -27.51462,-7.85398 -35.19264,-15.21082 -5.74957,-5.50905 -15.31737,-8.99087 -21.11388,-7.68355 -7.27945,1.64179 -10.84338,5.84527 -9.23976,10.89784 1.13635,3.58032 8.1177,9.54682 16.85039,14.40092 4.70504,2.61532 9.8239,5.80235 11.37525,7.0823 1.55135,1.27995 4.28745,3.17721 6.08022,4.21614 1.79277,1.03894 3.10811,2.3519 2.92299,2.91771 -0.59825,1.82845 -6.08048,1.54442 -9.93257,-0.5146 z m 58.25,-18.43099 c 0,-0.81088 -1.38108,-2.1885 -3.06907,-3.0614 -5.18758,-2.6826 -25.74507,-5.94508 -23.535,-3.73502 1.46128,1.46129 21.47092,7.9215 25.35407,8.18569 0.6875,0.0468 1.25,-0.57839 1.25,-1.38927 z m -28,-7.52568 c 0,-0.55 -0.47656,-1 -1.05902,-1 -0.58246,0 -0.7809,0.45 -0.44098,1 0.33992,0.55 0.81648,1 1.05902,1 0.24254,0 0.44098,-0.45 0.44098,-1 z m 3,-7.45953 c 0,-0.25274 -1.2329,-1.60274 -2.73978,-3 -2.78896,-2.58607 -8.55477,-3.37219 -14.01022,-1.91018 -4.12641,1.10583 -2.32967,2.02952 7,3.59863 5.0875,0.85564 9.3625,1.60417 9.5,1.6634 0.1375,0.0592 0.25,-0.0991 0.25,-0.35185 z m -65.83357,-7.14421 c -0.18347,-1.04294 -0.66527,-2.24306 -1.07068,-2.66693 C 576.61818,610.60367 566.4329,607 564.32798,607 c -3.47369,0 -0.0322,3.60491 6.47926,6.787 6.88381,3.36403 8.46412,3.48502 7.95824,0.60926 z m -49.64389,3.64021 c -0.32752,-0.52993 0.33124,-1.89025 1.4639,-3.02291 1.63933,-1.63933 2.46267,-1.84357 4.03648,-1.00129 2.42893,1.29992 2.46656,1.89568 0.22708,3.59568 -2.07038,1.57165 -4.89056,1.78265 -5.72746,0.42852 z m 13.95608,-11.0601 c -1.23198,-1.36132 -1.50108,-2.35391 -0.82221,-3.03278 2.02344,-2.02344 6.30784,1.68721 4.78782,4.14665 -0.86741,1.40349 -1.96692,1.09466 -3.96561,-1.11387 z M 571.21911,595.75 c 0.40594,-0.6875 3.05855,-3.95 5.89468,-7.25 7.30186,-8.49613 10.01547,-12.83632 19.69469,-31.5 9.21668,-17.77177 14.12108,-26.52538 19.42433,-34.66947 1.85143,-2.8432 3.36624,-5.63531 3.36624,-6.20468 0,-0.56938 -1.6875,-1.31207 -3.75,-1.65043 -2.0625,-0.33837 -6.45,-1.24818 -9.75,-2.0218 -6.89646,-1.61676 -25.63374,-5.4302 -26.75,-5.44421 -0.4125,-0.005 -0.75,-0.90941 -0.75,-2.00941 0,-2.89526 4.05708,-2.64381 25.40775,1.57472 9.95074,1.9661 19.07476,3.76714 20.2756,4.00232 3.61387,0.70777 3.82728,3.98564 0.5331,8.18796 -5.55581,7.08744 -13.21808,20.45755 -25.09212,43.78393 -7.67932,15.08593 -16.82308,27.6624 -23.16185,31.8572 -4.20532,2.78295 -6.53875,3.36992 -5.34242,1.34387 z m -188.62006,-2.32834 c -12.1636,-2.16496 -15.25545,-2.86706 -20.5,-4.65514 -35.70519,-12.1733 -51.38863,-38.71954 -38.79841,-65.67126 3.60238,-7.71157 15.65676,-19.50279 24.79841,-24.25704 15.66408,-8.14632 35.10342,-12.47671 52.4686,-11.68812 4.41727,0.2006 8.0314,0.24405 8.0314,0.0966 0,-0.1475 -0.71587,-4.65084 -1.59083,-10.00742 -0.87495,-5.35657 -1.3585,-12.09169 -1.07455,-14.96692 1.61503,-16.35366 17.19132,-27.38195 48.34338,-34.22798 35.38669,-7.77664 80.99129,-3.16192 109.52032,11.08233 11.95838,5.9707 17.42959,11.78734 19.16341,20.37334 2.69975,13.36929 -3.13052,39.29162 -12.48268,55.5 -5.8697,10.17289 -17.18113,21.40734 -27.8546,27.66504 l -8.47555,4.96909 0.28356,3.93294 c 0.21131,2.93088 -0.27491,4.53216 -1.90834,6.28482 -2.72086,2.91948 -12.84724,7.53697 -19.79811,9.02767 -14.83666,3.18189 -39.14958,-0.45044 -50.35269,-7.52266 -8.08761,-5.10548 -5.88171,-8.64105 2.76517,-4.43194 22.4466,10.9265 54.93496,9.49006 64.35076,-2.84521 l 2.61075,-3.42024 -3,0.64611 c -19.76481,4.25676 -22.85585,4.68171 -34.5,4.74305 -30.97395,0.16316 -52.7259,-8.72208 -68.0812,-27.80982 C 419.8943,518.00529 415.41803,509.88157 412.05992,500 l -2.20893,-6.5 -10.87597,-0.31623 c -19.12063,-0.55596 -37.20514,3.82625 -50.93629,12.3428 -26.75588,16.59495 -31.13401,44.36319 -9.94579,63.08104 19.83535,17.52272 49.67128,23.5581 78.79569,15.93924 15.58353,-4.0766 24.21327,-8.15024 31.29034,-14.7705 3.39622,-3.17699 6.6801,-5.77635 7.29751,-5.77635 2.62936,0 0.95351,5.22809 -3.0777,9.60144 -8.88295,9.63687 -35.85224,19.07767 -56.75329,19.86693 -5.80054,0.21904 -11.67144,0.19802 -13.04644,-0.0467 z m 127,-45.88575 c 19.45335,-2.9739 32.08283,-8.79281 44.21543,-20.37182 6.49557,-6.1992 8.58679,-9.0669 13.22669,-18.13784 5.13892,-10.04652 11.47507,-28.44239 10.22654,-29.69092 -0.30382,-0.30383 -2.71606,1.24272 -5.36053,3.43678 -6.6638,5.52879 -14.17082,9.45502 -25.8529,13.52129 -40.51089,14.10091 -97.42505,8.14544 -130.63248,-13.66934 l -2.67726,-1.75875 1.33674,5.06735 c 0.73521,2.78704 1.16215,5.06734 0.94876,5.06734 -0.2134,0 0.77497,3.2625 2.19638,7.25 4.50993,12.65179 12.63149,25.37372 20.55186,32.19321 17.16351,14.77792 44.46306,21.27497 71.82077,17.0927 z m 8.30718,-50.45241 c 2.30605,-0.50407 7.16504,-1.40321 10.79775,-1.99808 22.51633,-3.68718 45.11494,-16.63153 48.86307,-27.98847 2.78525,-8.43939 -3.8597,-17.42709 -17.47029,-23.62964 -30.43131,-13.86799 -70.8746,-17.20223 -108.49771,-8.94481 -12.9066,2.83271 -19.66924,5.42443 -27.65045,10.59679 -12.57522,8.14959 -15.86196,18.47179 -9.12102,28.64512 1.80153,2.71883 4.89714,4.99936 11.37336,8.37872 14.8578,7.75296 31.98363,12.67246 52.89811,15.19532 6.56542,0.79197 34.86833,0.60603 38.80718,-0.25495 z m -33.80718,-4.87943 c -18.96841,-1.40331 -41.0715,-6.67907 -47.75,-11.3974 -6.56126,-4.63549 -1.38757,-11.64879 13.93985,-18.89644 22.0104,-10.40774 61.54241,-12.81333 88.75171,-5.4007 23.82234,6.48992 30.15288,15.80009 16.26234,23.91662 -5.85096,3.41884 -20.93095,8.31036 -31.07152,10.07873 -7.95321,1.38692 -31.10406,2.36712 -40.13238,1.69919 z M 456.44468,474.13 c 3.75788,-2.64743 15.57906,-7.65891 22.65437,-9.60411 C 490.24792,461.46075 492.88266,459 485.01566,459 c -8.88143,0 -34.52781,8.24145 -35.77706,11.49693 -0.57024,1.48604 1.99396,5.50307 3.51278,5.50307 0.57141,0 2.2334,-0.8415 3.6933,-1.87 z m -33.84563,-8.51699 c 0,-2.80785 6.64091,-11.20718 11.34833,-14.3532 5.71836,-3.82164 15.72555,-7.10691 24.13591,-7.9236 5.60622,-0.54439 5.90751,-0.4699 4.42572,1.09414 -0.87452,0.92307 -4.47452,2.2832 -8,3.02251 -12.48659,2.61851 -22.20052,8.4271 -26.95318,16.11707 -2.13464,3.45392 -4.95678,4.61715 -4.95678,2.04308 z M 378.1172,578.02937 c -0.86518,-1.39989 1.57612,-5.69255 9.76179,-17.16464 3.97103,-5.56535 9.58603,-13.54915 12.47778,-17.74177 7.61768,-11.04458 13.93148,-16.22368 17.91473,-14.69516 2.23093,0.85609 1.50907,2.1863 -2.69685,4.96965 -2.21342,1.46477 -6.02183,5.46207 -8.46314,8.88288 -2.44131,3.42082 -7.85036,10.94467 -12.02011,16.71967 -4.16975,5.775 -8.90143,12.6375 -10.51484,15.25 -2.79264,4.52198 -5.1485,5.90039 -6.45936,3.77937 z M 622.79905,569.8 c -1.82348,-1.82348 -1.58126,-2.35783 3.72478,-8.21694 l 4.92478,-5.43811 0.0383,-7.34219 c 0.0942,-18.04326 11.59968,-33.56719 29.54734,-39.86715 5.01421,-1.76008 23.09497,-4.85082 28.75901,-4.91609 0.93183,-0.0107 2.93825,1.05054 4.45872,2.35839 2.46541,2.12066 2.78833,3.12137 2.98483,9.25 0.41962,13.0875 -3.76817,25.21874 -11.66195,33.78247 -9.62854,10.44574 -27.949,15.09235 -43.51574,11.03689 l -5.9601,-1.55273 -5.34512,6.05273 c -5.70808,6.46375 -6.10297,6.70464 -7.95488,4.85273 z m 41.26492,-15.0187 c 2.7307,-0.59614 6.79647,-1.89408 9.03504,-2.88431 4.05548,-1.79393 11.7837,-8.62572 11.07059,-9.78647 C 683.96331,541.77473 678.46305,541.725 671.94679,542 l -11.84774,0.5 -8.75,5.78455 c -4.8125,3.1815 -8.75,6.19434 -8.75,6.6952 0,1.92132 12.27489,1.80783 21.46492,-0.19845 z m -22.19505,-6.40486 c 6.74393,-4.18263 8.69164,-6.39584 12.80524,-14.55082 2.12914,-4.22091 4.3632,-7.97848 4.96456,-8.35014 1.94595,-1.20266 2.38186,0.49327 1.23306,4.79725 -0.618,2.31533 -0.94751,4.38583 -0.73224,4.60109 0.21527,0.21527 4.34422,-2.3107 9.17545,-5.61327 15.54189,-10.62423 16.58826,-11.28968 17.04075,-10.83719 0.98693,0.98692 -5.25299,7.68972 -12.29037,13.2021 -4.10648,3.21659 -7.46632,6.08362 -7.46632,6.37118 0,0.69341 19.66486,0.32852 20.82156,-0.38636 2.26401,-1.39923 4.85695,-16.24321 4.34259,-24.86028 -0.15482,-2.59368 -0.43415,-2.74901 -4.91415,-2.73254 -8.10767,0.0298 -22.02894,2.77118 -28.24989,5.56298 -10.01149,4.49289 -19.83077,16.8264 -21.47587,26.97479 -0.35171,2.16962 -0.84712,4.95727 -1.10091,6.19477 -0.59862,2.91891 0.66841,2.83796 5.84654,-0.37356 z M 334.30944,548 c -4.39304,-10.02891 -0.20639,-23.81648 9.46887,-31.18307 6.77031,-5.15481 15.82074,-8.57239 15.82074,-5.97415 0,0.46353 -2.09515,1.92036 -4.65588,3.23739 -6.36616,3.27424 -14.01016,10.34629 -16.54523,15.30726 -1.32124,2.58561 -2.34842,7.0829 -2.76648,12.11257 -0.36573,4.4 -0.96064,7.325 -1.32202,6.5 z M 549.59905,422.59372 c 0,-0.29996 0.89832,-2.01876 1.99626,-3.81955 2.86013,-4.69103 2.62034,-10.57144 -0.60472,-14.82989 -6.43722,-8.49986 -7.76775,-15.31584 -4.42656,-22.6762 C 548.8501,376.23204 556.99449,368 559.69083,368 c 3.18379,0 2.19785,3.3303 -2.01831,6.81743 -5.15603,4.26448 -8.50604,11.12955 -7.73862,15.85856 0.31659,1.95094 2.39577,6.34082 4.62039,9.7553 3.21826,4.93958 4.04476,7.13429 4.04476,10.74054 0,5.34103 -3.38811,11.1579 -6.78436,11.64772 -1.2186,0.17575 -2.21564,0.0741 -2.21564,-0.22583 z m -24.75,-3.256 c -0.6875,-0.27741 -1.25,-1.42264 -1.25,-2.54496 0,-1.12231 -1.8,-4.73609 -4,-8.03062 -3.32169,-4.97427 -4,-6.82976 -4,-10.94183 0,-5.11881 0.98409,-7.81348 4.05868,-11.11367 2.70756,-2.90622 4.08543,-1.29579 2.38117,2.78308 -2.21638,5.30454 -1.82704,10.68757 1.05686,14.6124 4.55232,6.19544 6.7122,11.63901 5.50965,13.886 -1.10195,2.05901 -1.57609,2.22936 -3.75636,1.3496 z"
       id="path1" />
  </g>
</svg>
